<?xml version="1.0" encoding="UTF-8"?><svg id="Calque_2" xmlns="http://www.w3.org/2000/svg" viewBox="0 0 104 54"><g id="Calque_1-2"><path d="M13,41V13h78v28H13" fill="#f9c" stroke-width="0"/><path d="M13,13L5,5h94l-8,8H13" fill="#ffd2e8" stroke-width="0"/><path d="M13,13v28l-8,8V5l8,8M99,5v44l-8-8V13l8-8" fill="#ffaad4" stroke-width="0"/><path d="M5,49l8-8h78l8,8H5" fill="#f080b8" stroke-width="0"/><path d="M5,49h94V5H5v44M5,0h94c1.37,0,2.55.5,3.55,1.5s1.45,2.13,1.45,3.5v44c0,1.37-.48,2.55-1.45,3.55-1,.97-2.18,1.45-3.55,1.45H5c-1.37,0-2.53-.48-3.5-1.45s-1.5-2.18-1.5-3.55V5c0-1.37.5-2.53,1.5-3.5.97-1,2.13-1.5,3.5-1.5" fill="#c45a8f" stroke-width="0"/></g></svg>